<?xml version="1.0" standalone="no"?>
<!DOCTYPE svg PUBLIC "-//W3C//DTD SVG 20010904//EN"
 "http://www.w3.org/TR/2001/REC-SVG-20010904/DTD/svg10.dtd">
<svg version="1.0" xmlns="http://www.w3.org/2000/svg"
 width="474.000000pt" height="474.000000pt" viewBox="0 0 474.000000 474.000000"
 preserveAspectRatio="xMidYMid meet">

<g transform="translate(0.000000,474.000000) scale(0.100000,-0.100000)"
fill="#000000" stroke="none">
<path d="M0 4640 l0 -100 928 -1 c510 0 936 -4 947 -9 11 -5 15 -9 9 -9 -6 -1
-24 -14 -40 -31 -16 -16 -37 -30 -46 -30 -10 0 -25 -12 -35 -27 -9 -16 -46
-61 -80 -102 -35 -41 -63 -80 -63 -87 0 -7 -4 -14 -8 -16 -5 -1 -26 -48 -47
-103 -21 -55 -44 -113 -51 -130 -17 -41 -54 -188 -54 -217 0 -12 -9 -52 -21
-88 -12 -39 -26 -130 -35 -230 -7 -91 -18 -195 -24 -233 -5 -37 -10 -95 -10
-130 -1 -132 -34 -354 -90 -592 -10 -44 -26 -132 -35 -195 -19 -133 -48 -242
-71 -261 -8 -7 -22 -25 -30 -41 -10 -20 -22 -28 -41 -28 -37 0 -242 -69 -683
-229 -63 -23 -157 -56 -209 -73 -98 -31 -163 -70 -193 -115 -16 -25 -17 -83
-18 -795 l0 -768 2370 0 2370 0 0 803 0 804 -27 13 c-16 8 -39 22 -53 30 -14
9 -92 38 -175 64 -182 59 -289 94 -318 106 -12 5 -69 23 -127 41 -139 41 -222
70 -240 83 -8 6 -16 24 -17 40 -1 16 -6 32 -10 35 -4 3 -9 15 -10 26 0 11 -10
45 -21 75 -11 30 -36 109 -56 175 -21 66 -48 149 -62 185 -13 36 -28 86 -34
113 -6 26 -19 73 -29 105 -10 31 -24 84 -31 117 -6 33 -16 71 -22 85 -6 14
-19 57 -29 95 -10 39 -23 88 -29 110 -46 173 -78 317 -73 336 4 15 3 20 -5 15
-12 -7 -13 -4 -33 98 -9 48 -8 60 3 67 10 6 10 9 1 9 -7 0 -13 12 -13 28 0 32
-41 188 -76 285 -13 38 -24 83 -25 100 0 18 -10 51 -22 74 -58 110 -82 152
-117 198 -21 28 -50 69 -65 93 -16 24 -50 60 -76 81 -45 36 -47 39 -26 45 12
3 426 6 920 6 l897 0 0 100 0 100 -2370 0 -2370 0 0 -100z m2585 -198 c-3 -13
-11 -22 -18 -19 -14 4 -29 67 -16 67 5 0 9 10 9 23 1 18 4 15 16 -13 8 -19 12
-45 9 -58z m-15 -47 c0 -9 -6 -12 -15 -9 -8 4 -12 10 -9 15 8 14 24 10 24 -6z
m44 -67 c8 -40 83 -111 174 -164 92 -54 178 -142 212 -218 38 -84 50 -131 61
-249 5 -56 12 -128 15 -159 4 -32 5 -58 3 -58 -47 -5 -165 -32 -192 -45 -41
-19 -52 -30 -61 -62 -6 -19 -4 -23 16 -23 13 0 41 7 63 14 36 13 101 19 161
17 24 -1 34 -26 27 -66 -4 -18 -10 -24 -21 -20 -8 3 -23 -3 -34 -15 -20 -21
-82 -28 -93 -10 -14 23 -149 -38 -158 -71 -4 -15 1 -14 34 8 22 14 42 23 45
20 3 -3 -8 -12 -24 -21 -30 -16 -82 -70 -82 -87 0 -5 19 -9 43 -8 31 1 36 3
19 7 -21 6 -22 9 -9 27 14 19 16 18 42 -13 15 -18 36 -32 47 -32 21 0 78 30
78 41 0 4 16 -8 35 -25 34 -32 45 -56 25 -56 -5 0 -10 -9 -10 -19 0 -13 9 -21
30 -26 48 -11 53 -32 47 -201 -5 -159 -11 -181 -63 -251 -13 -17 -24 -38 -24
-46 0 -8 -13 -40 -30 -71 -16 -31 -25 -54 -19 -50 7 4 7 -1 -1 -15 -6 -12 -15
-19 -20 -16 -6 3 -7 -1 -4 -9 3 -9 -30 -52 -93 -118 -54 -57 -109 -120 -121
-140 -13 -21 -39 -47 -58 -58 -18 -12 -34 -25 -34 -29 0 -4 -16 -13 -35 -21
-45 -18 -40 -33 13 -42 53 -9 79 -23 124 -67 60 -59 65 -62 78 -46 7 8 18 15
24 15 14 0 66 47 66 60 0 6 6 10 14 10 8 0 25 17 38 37 12 20 29 46 36 57 12
18 13 12 7 -44 -10 -101 -41 -203 -106 -348 -67 -151 -86 -218 -95 -349 -4
-51 -11 -93 -15 -93 -5 0 -48 46 -96 103 -111 130 -211 226 -243 234 -14 3
-29 8 -35 11 -18 11 -90 0 -108 -16 -10 -9 -50 -61 -89 -116 -39 -56 -81 -111
-91 -123 -24 -27 -26 -23 38 -53 28 -12 67 -40 88 -61 36 -38 37 -41 37 -112
0 -58 -9 -102 -47 -226 -26 -84 -53 -155 -60 -158 -37 -14 -63 46 -108 247
-14 63 -34 151 -44 196 -22 99 -142 461 -188 567 -18 43 -33 80 -33 82 0 2 14
2 31 1 26 -2 33 2 41 25 5 16 25 37 44 48 19 11 42 37 52 58 9 21 23 42 30 46
6 4 12 19 12 32 0 13 6 30 13 37 18 18 28 147 14 173 -5 11 -29 39 -52 61
-154 153 -195 262 -194 514 1 125 7 178 36 285 l19 70 48 3 c34 2 53 -2 66
-13 13 -12 26 -14 42 -9 13 4 60 6 104 5 79 -1 82 0 95 26 16 32 35 39 55 22
20 -17 18 -24 -13 -37 l-28 -12 34 5 c18 3 48 5 65 5 l31 1 -40 37 c-22 20
-39 39 -38 42 2 3 -3 5 -10 6 -6 0 -18 2 -24 2 -7 1 -13 11 -13 23 0 16 4 19
23 14 12 -4 33 -17 46 -29 l24 -21 -12 23 c-17 31 -69 52 -131 52 -27 0 -50 5
-50 10 0 6 -4 10 -10 10 -5 0 -10 -6 -10 -14 0 -8 -15 -17 -35 -20 -20 -4 -33
-11 -29 -17 3 -5 15 -7 27 -4 22 5 22 5 0 -6 -19 -10 -25 -8 -41 11 l-19 24
-26 -26 c-23 -23 -31 -25 -58 -18 -42 12 -42 12 -47 73 -3 42 0 57 17 78 30
39 91 52 176 40 39 -6 99 -11 136 -11 36 0 69 -4 75 -8 17 -15 92 -35 108 -29
21 8 5 44 -36 76 -64 52 -287 61 -392 16 -21 -9 -40 -14 -42 -12 -2 2 16 51
41 108 26 57 67 160 92 229 50 138 80 197 127 246 17 18 49 52 70 74 40 42
137 110 157 110 6 0 34 23 63 50 47 45 56 49 79 41 24 -9 25 -8 32 35 7 52 20
57 29 12z m-294 -112 c0 -2 -25 -19 -55 -37 -30 -18 -55 -37 -55 -41 0 -4 -7
-8 -15 -8 -9 0 -12 6 -9 15 4 8 10 15 15 15 4 0 30 14 56 30 43 28 63 36 63
26z m-90 -126 c0 -15 -7 -20 -29 -20 -21 0 -32 -6 -36 -21 -5 -14 -10 -18 -17
-11 -13 13 27 58 57 65 11 3 21 5 23 6 1 0 2 -8 2 -19z m680 -850 c0 -5 -5
-10 -11 -10 -5 0 -7 5 -4 10 3 6 8 10 11 10 2 0 4 -4 4 -10z m-705 -10 c3 -5
-3 -11 -13 -15 -20 -6 -52 2 -52 14 0 10 59 11 65 1z m1082 -1057 c-3 -10 -5
-4 -5 12 0 17 2 24 5 18 2 -7 2 -21 0 -30z m50 -40 c-3 -10 -5 -2 -5 17 0 19
2 27 5 18 2 -10 2 -26 0 -35z m-13 -42 c-9 -12 -34 12 -33 31 1 22 1 22 9 -2
8 -25 8 -25 10 5 l2 30 7 -30 c4 -16 6 -32 5 -34z m38 19 c3 -16 1 -30 -4 -30
-4 0 -8 14 -8 30 0 17 2 30 4 30 2 0 6 -13 8 -30z m203 -91 c16 -16 -29 -9
-50 8 -19 15 -19 15 10 8 17 -3 34 -11 40 -16z m-2300 -49 c3 -6 -3 -24 -15
-40 -18 -25 -28 -30 -65 -30 -28 0 -45 5 -48 14 -7 18 9 32 59 50 48 18 61 19
69 6z m2280 -5 c65 -27 55 -65 -17 -65 -28 0 -42 7 -62 31 -14 17 -24 35 -20
40 8 14 60 11 99 -6z m668 -214 c18 -18 19 -21 4 -35 -13 -13 -24 -15 -57 -7
-50 11 -59 19 -40 32 11 8 12 12 3 16 -7 2 -13 9 -13 13 0 17 83 1 103 -19z
m-3594 -8 c-11 -13 -11 -17 -1 -20 21 -8 2 -23 -28 -23 -16 0 -32 -4 -35 -10
-9 -15 -25 -12 -25 5 0 8 -8 15 -17 15 -14 1 -11 6 12 25 37 31 118 37 94 8z
m826 -373 c8 0 15 -4 15 -10 0 -5 -4 -10 -10 -10 -20 0 -9 -15 27 -38 29 -18
38 -20 45 -10 8 10 11 10 15 1 2 -7 13 -13 24 -13 10 0 19 -4 19 -10 0 -5 -7
-10 -15 -10 -8 0 -15 -7 -15 -16 0 -11 -6 -14 -20 -9 -14 4 -20 2 -20 -9 0 -8
-11 -28 -25 -44 -14 -17 -25 -42 -25 -57 0 -20 -4 -26 -17 -23 -10 2 -18 11
-18 21 0 11 -15 25 -41 36 -23 10 -44 26 -47 35 -5 12 -14 15 -31 10 -14 -3
-29 -3 -35 0 -16 10 -1 38 17 31 9 -3 32 13 63 45 34 35 43 50 31 50 -15 1
-15 2 -1 13 8 7 19 21 23 32 7 19 8 19 17 3 6 -10 17 -18 24 -18z m1982 -30
c3 -11 9 -20 14 -20 5 0 9 -5 9 -11 0 -5 -4 -7 -10 -4 -23 14 -8 -14 15 -29
14 -10 31 -28 37 -41 7 -16 20 -25 42 -27 41 -4 44 -34 2 -31 -19 1 -40 -7
-58 -22 -16 -14 -40 -28 -54 -31 -15 -4 -24 -13 -24 -25 0 -13 -7 -19 -21 -19
-17 0 -20 4 -15 24 4 16 0 29 -13 40 -11 10 -25 31 -31 47 -10 23 -15 27 -26
18 -11 -9 -14 -8 -14 4 0 8 -7 17 -15 21 -22 8 -18 26 5 26 11 0 20 6 20 13 0
6 5 4 11 -6 11 -18 12 -18 32 1 12 11 31 24 42 30 11 6 14 12 8 12 -18 0 -16
20 2 20 8 0 15 7 15 15 0 22 21 18 27 -5z m-749 -125 c32 -25 72 -63 90 -85
43 -52 43 -60 -24 -372 -8 -37 -14 -79 -14 -95 0 -23 -2 -25 -13 -13 -8 8 -22
37 -32 63 -9 27 -49 110 -87 185 -67 131 -70 141 -73 215 -2 54 1 77 9 77 7 0
27 16 46 35 19 19 36 35 38 35 2 0 29 -20 60 -45z"/>
<path d="M2571 4464 c0 -11 3 -14 6 -6 3 7 2 16 -1 19 -3 4 -6 -2 -5 -13z"/>
<path d="M1850 3004 c1 -20 18 -34 33 -28 18 7 23 24 8 24 -5 0 -16 3 -25 6
-9 3 -16 2 -16 -2z"/>
<path d="M2660 2615 c-30 -32 -84 -33 -139 -4 -30 15 -49 19 -73 14 -30 -7
-31 -8 -13 -21 10 -8 32 -14 47 -14 16 0 49 -5 73 -11 39 -10 50 -8 99 14 31
14 56 31 56 36 0 19 -26 12 -50 -14z"/>
<path d="M2198 2429 c-6 -4 4 -10 21 -14 20 -4 35 -15 41 -30 13 -35 108 -121
171 -155 128 -68 257 -20 357 133 35 52 37 50 -46 66 -73 15 -159 14 -165 -1
-4 -10 -7 -10 -14 0 -7 9 -53 11 -182 10 -95 -2 -177 -6 -183 -9z m322 -19
c21 -7 17 -8 -20 -9 -25 0 -52 4 -60 9 -19 12 42 12 80 0z m48 -67 c121 -4
152 -8 152 -19 0 -7 -12 -21 -27 -31 -16 -10 -34 -26 -41 -35 -8 -11 -26 -18
-44 -18 -35 0 -98 20 -98 31 0 4 -21 12 -48 18 -55 11 -105 35 -95 44 3 4 1 7
-6 7 -7 0 -9 5 -5 11 4 6 17 8 33 4 14 -4 95 -9 179 -12z"/>
<path d="M2568 2273 c7 -3 16 -2 19 1 4 3 -2 6 -13 5 -11 0 -14 -3 -6 -6z"/>
<path d="M2505 1970 c-28 -7 -27 -8 13 -9 23 0 42 4 42 9 0 11 -11 11 -55 0z"/>
<path d="M1377 1292 c-10 -10 -17 -29 -16 -43 l0 -24 9 22 c6 14 15 21 24 17
17 -7 31 12 15 22 -8 4 -7 9 2 15 11 7 11 9 -2 9 -9 0 -23 -8 -32 -18z"/>
<path d="M1455 1220 c-3 -5 -1 -10 4 -10 6 0 11 5 11 10 0 6 -2 10 -4 10 -3 0
-8 -4 -11 -10z"/>
<path d="M1388 1203 c7 -3 16 -2 19 1 4 3 -2 6 -13 5 -11 0 -14 -3 -6 -6z"/>
<path d="M3398 1273 c17 -3 22 -10 20 -26 -2 -16 2 -21 15 -19 10 2 17 -3 17
-13 0 -8 5 -15 10 -15 18 0 10 31 -15 55 -13 14 -34 24 -47 24 l-23 -2 23 -4z"/>
<path d="M3361 3524 c0 -11 3 -14 6 -6 3 7 2 16 -1 19 -3 4 -6 -2 -5 -13z"/>
</g>
</svg>
